<svg width="25" height="24" viewBox="0 0 25 24" fill="none" xmlns="http://www.w3.org/2000/svg">
<path fill-rule="evenodd" clip-rule="evenodd" d="M5.6665 3H19.6665C20.7711 3 21.6665 3.89543 21.6665 5V19C21.6665 20.1046 20.7711 21 19.6665 21H5.6665C4.56193 21 3.6665 20.1046 3.6665 19V5C3.6665 3.89543 4.56193 3 5.6665 3ZM8.6665 18C8.94264 18 9.1665 17.7761 9.1665 17.5V10.5C9.1665 10.2239 8.94264 10 8.6665 10H7.1665C6.89036 10 6.6665 10.2239 6.6665 10.5V17.5C6.6665 17.7761 6.89036 18 7.1665 18H8.6665ZM7.9165 9C7.08807 9 6.4165 8.32843 6.4165 7.5C6.4165 6.67157 7.08807 6 7.9165 6C8.74493 6 9.4165 6.67157 9.4165 7.5C9.4165 8.32843 8.74493 9 7.9165 9ZM18.1665 18C18.4426 18 18.6665 17.7761 18.6665 17.5V12.9C18.699 11.3108 17.5241 9.95452 15.9465 9.76C14.8435 9.65925 13.7748 10.1744 13.1665 11.1V10.5C13.1665 10.2239 12.9426 10 12.6665 10H11.1665C10.8904 10 10.6665 10.2239 10.6665 10.5V17.5C10.6665 17.7761 10.8904 18 11.1665 18H12.6665C12.9426 18 13.1665 17.7761 13.1665 17.5V13.75C13.1665 12.9216 13.8381 12.25 14.6665 12.25C15.4949 12.25 16.1665 12.9216 16.1665 13.75V17.5C16.1665 17.7761 16.3904 18 16.6665 18H18.1665Z" fill="black"/>
</svg>
