<svg width="25" height="24" viewBox="0 0 25 24" fill="none" xmlns="http://www.w3.org/2000/svg">
<path d="M21.6392 6.7174C21.1748 7.33692 20.6134 7.87733 19.9767 8.31776C19.9767 8.47959 19.9767 8.64142 19.9767 8.81225C19.9818 11.7511 18.8079 14.5691 16.7182 16.6345C14.6284 18.6999 11.7976 19.8399 8.86043 19.7989C7.16237 19.8046 5.48605 19.4169 3.9628 18.6661C3.88066 18.6302 3.82769 18.549 3.828 18.4593V18.3604C3.828 18.2313 3.93261 18.1267 4.06165 18.1267C5.7308 18.0716 7.3404 17.4929 8.66272 16.4724C7.15191 16.4419 5.79257 15.5469 5.16698 14.1707C5.13539 14.0956 5.14522 14.0093 5.19295 13.9432C5.24067 13.8771 5.31938 13.8407 5.40063 13.8471C5.8598 13.8932 6.32356 13.8505 6.76658 13.7212C5.09877 13.375 3.84559 11.9904 3.66624 10.2957C3.65987 10.2144 3.6963 10.1357 3.76238 10.0879C3.82845 10.0402 3.91462 10.0303 3.98976 10.062C4.43732 10.2595 4.92047 10.3635 5.40962 10.3676C3.94822 9.40846 3.31699 7.58405 3.87293 5.92622C3.93032 5.76513 4.06819 5.64612 4.23588 5.61294C4.40356 5.57975 4.57634 5.63728 4.6907 5.76439C6.66277 7.86325 9.37242 9.11396 12.2483 9.25279C12.1747 8.95885 12.1385 8.65676 12.1405 8.35372C12.1674 6.76472 13.1506 5.34921 14.6298 4.76987C16.1089 4.19054 17.7913 4.56203 18.8894 5.71044C19.6378 5.56785 20.3614 5.31645 21.0371 4.96421C21.0866 4.93331 21.1494 4.93331 21.1989 4.96421C21.2298 5.01373 21.2298 5.07652 21.1989 5.12604C20.8716 5.87552 20.3187 6.50412 19.6173 6.92419C20.2315 6.85296 20.8349 6.70807 21.4146 6.49264C21.4634 6.45942 21.5275 6.45942 21.5763 6.49264C21.6172 6.51134 21.6478 6.54711 21.6599 6.59042C21.672 6.63373 21.6644 6.68018 21.6392 6.7174Z" fill="black"/>
</svg>
