<svg width="25" height="24" viewBox="0 0 25 24" fill="none" xmlns="http://www.w3.org/2000/svg">
<path d="M13.0287 6C13.2654 6 13.4574 6.19401 13.4574 6.43333V15.114L17.2642 11.2573C17.3447 11.1753 17.4543 11.1292 17.5686 11.1292C17.6829 11.1292 17.7925 11.1753 17.873 11.2573L18.4732 11.8727C18.5543 11.954 18.6 12.0648 18.6 12.1803C18.6 12.2959 18.5543 12.4066 18.4732 12.488L13.2173 17.8093C13.0968 17.9313 12.9334 17.9998 12.7629 18H12.4371C12.2669 17.998 12.1042 17.9297 11.9826 17.8093L6.72678 12.488C6.64563 12.4066 6.59998 12.2959 6.59998 12.1803C6.59998 12.0648 6.64563 11.954 6.72678 11.8727L7.33554 11.2573C7.41456 11.1758 7.52272 11.1299 7.63563 11.1299C7.74854 11.1299 7.8567 11.1758 7.93572 11.2573L11.7426 15.114V6.43333C11.7426 6.19401 11.9345 6 12.1713 6H13.0287Z" fill="black"/>
</svg>
