<svg width="25" height="24" viewBox="0 0 25 24" fill="none" xmlns="http://www.w3.org/2000/svg">
<path d="M17.1665 6H14.1665C13.6142 6 13.1665 6.44772 13.1665 7V10H17.1665C17.2802 9.99748 17.3881 10.0504 17.4557 10.1419C17.5233 10.2334 17.5423 10.352 17.5065 10.46L16.7665 12.66C16.6983 12.8619 16.5096 12.9984 16.2965 13H13.1665V20.5C13.1665 20.7761 12.9426 21 12.6665 21H10.1665C9.89036 21 9.6665 20.7761 9.6665 20.5V13H8.1665C7.89036 13 7.6665 12.7761 7.6665 12.5V10.5C7.6665 10.2239 7.89036 10 8.1665 10H9.6665V7C9.6665 4.79086 11.4574 3 13.6665 3H17.1665C17.4426 3 17.6665 3.22386 17.6665 3.5V5.5C17.6665 5.77614 17.4426 6 17.1665 6Z" fill="black"/>
</svg>
