<svg width="25" height="24" viewBox="0 0 25 24" fill="none" xmlns="http://www.w3.org/2000/svg">
<path fill-rule="evenodd" clip-rule="evenodd" d="M16.6665 3H8.6665C5.90508 3 3.6665 5.23858 3.6665 8V16C3.6665 18.7614 5.90508 21 8.6665 21H16.6665C19.4279 21 21.6665 18.7614 21.6665 16V8C21.6665 5.23858 19.4279 3 16.6665 3ZM19.9165 16C19.911 17.7926 18.4591 19.2445 16.6665 19.25H8.6665C6.87385 19.2445 5.42199 17.7926 5.4165 16V8C5.42199 6.20735 6.87385 4.75549 8.6665 4.75H16.6665C18.4591 4.75549 19.911 6.20735 19.9165 8V16ZM17.4165 8.25C17.9688 8.25 18.4165 7.80228 18.4165 7.25C18.4165 6.69772 17.9688 6.25 17.4165 6.25C16.8642 6.25 16.4165 6.69772 16.4165 7.25C16.4165 7.80228 16.8642 8.25 17.4165 8.25ZM12.6665 7.5C10.1812 7.5 8.1665 9.51472 8.1665 12C8.1665 14.4853 10.1812 16.5 12.6665 16.5C15.1518 16.5 17.1665 14.4853 17.1665 12C17.1692 10.8057 16.6959 9.65957 15.8514 8.81508C15.0069 7.97059 13.8608 7.49734 12.6665 7.5ZM9.9165 12C9.9165 13.5188 11.1477 14.75 12.6665 14.75C14.1853 14.75 15.4165 13.5188 15.4165 12C15.4165 10.4812 14.1853 9.25 12.6665 9.25C11.1477 9.25 9.9165 10.4812 9.9165 12Z" fill="black"/>
</svg>
